<?xml version="1.0" encoding="UTF-8"?>
<svg version="1.1" xmlns="http://www.w3.org/2000/svg" width="174" height="41">
<path d="M0 0 C1.0725 0.556875 2.145 1.11375 3.25 1.6875 C4.1575 2.120625 5.065 2.55375 6 3 C7.70116376 2.05988318 9.36504293 1.05104383 11 0 C16.63301965 -0.53647806 20.13790888 -0.16601282 25 3 C27.91355796 6.12699754 28.36345261 8.19284351 28.29296875 12.421875 C28.2784668 13.95908203 28.2784668 13.95908203 28.26367188 15.52734375 C28.23853516 16.59082031 28.21339844 17.65429688 28.1875 18.75 C28.16719727 20.36841797 28.16719727 20.36841797 28.14648438 22.01953125 C28.11116584 24.6801942 28.06184199 27.33984296 28 30 C25.69 30 23.38 30 21 30 C20.97494385 29.43490723 20.9498877 28.86981445 20.92407227 28.28759766 C20.80820044 25.73316258 20.68543463 23.1791045 20.5625 20.625 C20.52318359 19.73554688 20.48386719 18.84609375 20.44335938 17.9296875 C20.40146484 17.07890625 20.35957031 16.228125 20.31640625 15.3515625 C20.26141968 14.17327881 20.26141968 14.17327881 20.20532227 12.97119141 C20.109109 10.92476504 20.109109 10.92476504 19 9 C15.71585695 8.04932701 14.30306592 7.89897803 11 9 C9.85345518 11.29308963 9.80270883 12.79909656 9.68359375 15.3515625 C9.64169922 16.20234375 9.59980469 17.053125 9.55664062 17.9296875 C9.51732422 18.81914062 9.47800781 19.70859375 9.4375 20.625 C9.39431641 21.5221875 9.35113281 22.419375 9.30664062 23.34375 C9.20043139 25.56234283 9.09838806 27.7810488 9 30 C6.36 30 3.72 30 1 30 C0.505 20.1 0.505 20.1 0 10 C-1.65 9.34 -3.3 8.68 -5 8 C-6.98 8.99 -6.98 8.99 -9 10 C-9.33 16.6 -9.66 23.2 -10 30 C-12.64 30 -15.28 30 -18 30 C-18.11689626 26.62529496 -18.18747934 23.2511157 -18.25 19.875 C-18.28351563 18.92367188 -18.31703125 17.97234375 -18.3515625 16.9921875 C-18.43539084 10.95654705 -18.00458999 7.60195976 -14 3 C-9.79616128 -0.60329033 -5.30786909 -0.76095114 0 0 Z " fill="#00B63E" transform="translate(146,11)"/>
<path d="M0 0 C2.97 0 5.94 0 9 0 C9 4.29 9 8.58 9 13 C9.99 12.34 10.98 11.68 12 11 C17.60876529 10.54026514 21.17285329 10.81847149 26 14 C30.4755802 18.95942671 31.30510457 21.92574284 31.2109375 28.4609375 C30.80729263 33.31962577 29.00702156 35.99297844 25.625 39.375 C20.11598589 41.84455805 14.93614983 41.85341594 9 41 C4.95075812 39.34210285 3.29837737 36.59817897 1.36328125 32.71875 C-0.86196712 26.51984383 -0.31617986 19.99338379 -0.1875 13.5 C-0.17396484 12.200625 -0.16042969 10.90125 -0.14648438 9.5625 C-0.11132334 6.37456588 -0.06210664 3.18750401 0 0 Z M10 20 C8.40528702 23.6747734 7.70786853 25.904507 8.75 29.8125 C9.93696145 32.11237306 9.93696145 32.11237306 12 34 C15.81884318 34.42431591 18.12405448 34.5390434 21.4375 32.5 C23.78057502 28.75107996 23.48773804 26.38964238 23 22 C21.47069547 19.50481892 20.37861613 19.12952657 17.625 18.1875 C14.34298819 17.95307058 12.77616987 18.19924116 10 20 Z " fill="#FFFFFF" transform="translate(0,0)"/>
<path d="M0 0 C3.74909632 2.49939755 6.99964909 5.38137607 8.44311523 9.80957031 C8.82010373 11.91751657 8.92636792 13.84443491 8.91015625 15.984375 C8.90693359 16.73847656 8.90371094 17.49257813 8.90039062 18.26953125 C8.89201172 19.04683594 8.88363281 19.82414062 8.875 20.625 C8.87048828 21.41777344 8.86597656 22.21054687 8.86132812 23.02734375 C8.84958565 24.97659508 8.83165146 26.92580738 8.8125 28.875 C5.47916667 28.875 2.14583333 28.875 -1.1875 28.875 C-2.13238281 28.92140625 -3.07726562 28.9678125 -4.05078125 29.015625 C-5.18902344 29.05171875 -6.32726562 29.0878125 -7.5 29.125 C-8.63050781 29.17140625 -9.76101562 29.2178125 -10.92578125 29.265625 C-14.86649183 28.79368361 -16.38348982 27.61913808 -19.1875 24.875 C-22.65753049 19.84943859 -23.06410617 14.79931643 -22.1875 8.875 C-17.57173638 -0.19167855 -9.62502614 -3.39706805 0 0 Z M-13.1875 8.4375 C-14.57635542 11.82283509 -14.64060904 14.25012765 -14.1875 17.875 C-12.77083333 20.45833333 -12.77083333 20.45833333 -10.1875 21.875 C-5.5211133 22.45372098 -5.5211133 22.45372098 -1.3125 20.6875 C0.16093296 18.31363579 0.61712453 16.67538176 0.8125 13.875 C0.10026153 10.65325456 0.10026153 10.65325456 -1.1875 7.875 C-5.07356563 5.93196719 -9.76531561 5.76391844 -13.1875 8.4375 Z " fill="#00B63E" transform="translate(101.1875,12.125)"/>
<path d="M0 0 C-0.33 2.31 -0.66 4.62 -1 7 C-3.64 7.66 -6.28 8.32 -9 9 C-9 9.66 -9 10.32 -9 11 C-7.02 11 -5.04 11 -3 11 C-3.33 13.64 -3.66 16.28 -4 19 C-6.31 19 -8.62 19 -11 19 C-11.08564209 19.63091553 -11.17128418 20.26183105 -11.25952148 20.91186523 C-11.64783714 23.75435681 -12.04258081 26.59591869 -12.4375 29.4375 C-12.57220703 30.43072266 -12.70691406 31.42394531 -12.84570312 32.44726562 C-12.97783203 33.39150391 -13.10996094 34.33574219 -13.24609375 35.30859375 C-13.36654053 36.18314209 -13.4869873 37.05769043 -13.61108398 37.95874023 C-14 40 -14 40 -15 41 C-17.67058851 41.14115161 -20.32432238 41.04247107 -23 41 C-22.01701938 33.55444468 -21.02712214 26.23972193 -19 19 C-19.99 19 -20.98 19 -22 19 C-21.67 16.69 -21.34 14.38 -21 12 C-20.38125 11.95875 -19.7625 11.9175 -19.125 11.875 C-18.42375 11.58625 -17.7225 11.2975 -17 11 C-16.690625 10.071875 -16.38125 9.14375 -16.0625 8.1875 C-14.78409152 4.35227457 -13.33015446 3.19302855 -10 1 C-6.52674819 -0.1577506 -3.63932552 -0.06866652 0 0 Z " fill="#00B53D" transform="translate(84,0)"/>
<path d="M0 0 C2.64 0 5.28 0 8 0 C8 3.63 8 7.26 8 11 C10.31 11 12.62 11 15 11 C15 13.64 15 16.28 15 19 C12.69 19 10.38 19 8 19 C8.33 23.62 8.66 28.24 9 33 C11.31 33.33 13.62 33.66 16 34 C16 36.31 16 38.62 16 41 C6.80779944 41.30640669 6.80779944 41.30640669 4 39 C0.5568725 33.86474063 -0.49214645 30.63611653 -0.390625 24.31640625 C-0.38496521 23.61603745 -0.37930542 22.91566864 -0.37347412 22.19407654 C-0.3512922 19.98282055 -0.30113806 17.77325627 -0.25 15.5625 C-0.22991115 14.05275797 -0.21166458 12.54299025 -0.1953125 11.03320312 C-0.15148947 7.35493001 -0.08259341 3.67763044 0 0 Z " fill="#FFFFFF" transform="translate(43,0)"/>
<path d="M0 0 C0 2.31 0 4.62 0 7 C-1.98 7.99 -3.96 8.98 -6 10 C-6.33 16.6 -6.66 23.2 -7 30 C-9.64 30 -12.28 30 -15 30 C-15.11689626 26.62529496 -15.18747934 23.2511157 -15.25 19.875 C-15.28351563 18.92367188 -15.31703125 17.97234375 -15.3515625 16.9921875 C-15.43513363 10.97506645 -15.05177347 7.55550747 -11 3 C-7.22282128 0.58903486 -4.4766661 -0.39499995 0 0 Z " fill="#00B63E" transform="translate(127,11)"/>
<path d="M0 0 C2.64 0 5.28 0 8 0 C8 9.9 8 19.8 8 30 C5.36 30 2.72 30 0 30 C0 20.1 0 10.2 0 0 Z " fill="#FFFFFF" transform="translate(33,11)"/>
<path d="M0 0 C3 0.125 3 0.125 4 1.125 C4.1875 3.5625 4.1875 3.5625 4 6.125 C3.34 6.785 2.68 7.445 2 8.125 C-2.55555556 7.56944444 -2.55555556 7.56944444 -4 6.125 C-4.125 3.625 -4.125 3.625 -4 1.125 C-3 0.125 -3 0.125 0 0 Z " fill="#FFFFFF" transform="translate(37,-0.125)"/>
</svg>
